<svg width="24" height="26" viewBox="0 0 24 26" fill="none" xmlns="http://www.w3.org/2000/svg">
<path d="M2.87402 25.6074C2.04395 25.6074 1.39453 25.417 0.925781 25.0361C0.457031 24.6553 0.222656 24.1377 0.222656 23.4834C0.222656 22.5947 0.496094 21.6621 1.04297 20.6855C1.59961 19.709 2.39062 18.7959 3.41602 17.9463C4.45117 17.0967 5.69141 16.4033 7.13672 15.8662C8.58203 15.3291 10.2031 15.0605 12 15.0605C13.7969 15.0605 15.418 15.3291 16.8633 15.8662C18.3086 16.4033 19.5439 17.0967 20.5693 17.9463C21.6045 18.7959 22.3955 19.709 22.9424 20.6855C23.4893 21.6621 23.7627 22.5947 23.7627 23.4834C23.7627 24.1377 23.5283 24.6553 23.0596 25.0361C22.5908 25.417 21.9463 25.6074 21.126 25.6074H2.87402ZM12 12.6436C10.9648 12.6436 10.0176 12.3701 9.1582 11.8232C8.30859 11.2666 7.62988 10.5195 7.12207 9.58203C6.61426 8.64453 6.36035 7.59961 6.36035 6.44727C6.36035 5.32422 6.61426 4.30371 7.12207 3.38574C7.62988 2.46777 8.31348 1.73535 9.17285 1.18848C10.0322 0.641602 10.9746 0.368164 12 0.368164C13.0254 0.368164 13.9678 0.641602 14.8271 1.18848C15.6865 1.72559 16.3701 2.45312 16.8779 3.37109C17.3955 4.28906 17.6543 5.30957 17.6543 6.43262C17.6543 7.59473 17.3955 8.64453 16.8779 9.58203C16.3701 10.5195 15.6865 11.2666 14.8271 11.8232C13.9775 12.3701 13.0352 12.6436 12 12.6436Z" fill="black"/>
</svg>
