<svg width="22" height="29" viewBox="0 0 22 29" fill="none" xmlns="http://www.w3.org/2000/svg">
<path d="M4.30566 28.7207C3.20215 28.7207 2.37207 28.4326 1.81543 27.8564C1.25879 27.2803 0.980469 26.3916 0.980469 25.1904V15.0098C0.980469 13.8281 1.25879 12.9492 1.81543 12.373C2.37207 11.7871 3.20215 11.4941 4.30566 11.4941H17.6943C18.7979 11.4941 19.6279 11.7871 20.1846 12.373C20.7412 12.9492 21.0195 13.8281 21.0195 15.0098V25.1904C21.0195 26.3916 20.7412 27.2803 20.1846 27.8564C19.6279 28.4326 18.7979 28.7207 17.6943 28.7207H4.30566ZM5.15527 25.7178H16.8594C17.1426 25.7178 17.3525 25.6348 17.4893 25.4688C17.6357 25.3125 17.709 25.0781 17.709 24.7656V15.4492C17.709 15.1367 17.6357 14.9023 17.4893 14.7461C17.3525 14.5898 17.1426 14.5117 16.8594 14.5117H5.15527C4.88184 14.5117 4.66699 14.5898 4.51074 14.7461C4.36426 14.9023 4.29102 15.1367 4.29102 15.4492V24.7656C4.29102 25.0781 4.36426 25.3125 4.51074 25.4688C4.66699 25.6348 4.88184 25.7178 5.15527 25.7178ZM3.67578 12.7832V8.31543C3.67578 6.66504 4.00781 5.26367 4.67188 4.11133C5.33594 2.94922 6.22461 2.06543 7.33789 1.45996C8.45117 0.854492 9.67188 0.551758 11 0.551758C12.3281 0.551758 13.5488 0.854492 14.6621 1.45996C15.7754 2.06543 16.6641 2.94922 17.3281 4.11133C18.002 5.26367 18.3389 6.66504 18.3389 8.31543V12.7832H15.2188V8.13965C15.2188 7.17285 15.0234 6.34766 14.6328 5.66406C14.252 4.98047 13.7441 4.46289 13.1094 4.11133C12.4746 3.75 11.7715 3.56934 11 3.56934C10.2285 3.56934 9.52051 3.75 8.87598 4.11133C8.24121 4.46289 7.7334 4.98047 7.35254 5.66406C6.98145 6.34766 6.7959 7.17285 6.7959 8.13965V12.7832H3.67578Z" fill="black"/>
</svg>
